<svg width="24" height="24" viewBox="0 0 24 24" fill="none" xmlns="http://www.w3.org/2000/svg">
    <path d="M8.69592 15.1753C9.10945 15.9386 8.38318 16.8268 7.54515 16.5824L4.92311 15.8186C4.19825 15.6075 3.4333 16.0218 3.21419 16.7443L3.07239 17.5002L11.2475 21.4352C12.9318 21.9258 14.8107 21.7759 16.4849 20.869C19.8324 19.0557 21.0923 14.9013 19.2987 11.5904L15.8347 5.1957C15.4759 4.53345 14.6425 4.29068 13.9729 4.6534C13.3033 5.01612 13.0513 5.84686 13.4101 6.50911L15.3586 10.1062L12.1111 4.11109C11.7523 3.44883 10.9188 3.20606 10.2493 3.56878C9.57968 3.9315 9.32774 4.76224 9.68649 5.42449L12.5011 10.6202L12.068 9.82088L8.82047 3.82581C8.46172 3.16355 7.62826 2.92078 6.95867 3.2835C6.28908 3.64622 6.03715 4.47696 6.3959 5.13922L9.64347 11.1343L10.0765 11.9336L6.82891 5.93856C6.47016 5.27631 5.63669 5.03353 4.96711 5.39625C4.29752 5.75897 4.04558 6.58971 4.40433 7.25197L7.65191 13.247L8.69592 15.1753Z"
          stroke="currentColor" stroke-width="1.2" stroke-miterlimit="10" stroke-linecap="round" stroke-linejoin="round"/>
    <path d="M15.0723 2.00024C16.6723 2.00024 17.7389 3.33358 18.0723 4.00024" stroke="currentColor" stroke-width="1.2"
          stroke-linecap="round"/>
</svg>
